<svg width="20" height="26" viewBox="0 0 20 26" fill="none" xmlns="http://www.w3.org/2000/svg">
<path d="M11.6716 0.5H2C0.895431 0.5 0 1.39543 0 2.5V23.5C0 24.6046 0.895431 25.5 2 25.5H18C19.1046 25.5 20 24.6046 20 23.5V8.82843C20 8.29799 19.7893 7.78929 19.4142 7.41421L13.0858 1.08579C12.7107 0.710714 12.202 0.5 11.6716 0.5Z" fill="white"/>
<path d="M8.12386 13.4833C7.96386 13.1899 7.74386 12.9666 7.46386 12.8133C7.18386 12.6599 6.8572 12.5833 6.48386 12.5833C6.07053 12.5833 5.70386 12.6766 5.38386 12.8633C5.06386 13.0499 4.81386 13.3166 4.63386 13.6633C4.45386 14.0099 4.36386 14.4099 4.36386 14.8633C4.36386 15.3299 4.45386 15.7366 4.63386 16.0833C4.82053 16.4299 5.0772 16.6966 5.40386 16.8833C5.73053 17.0699 6.11053 17.1633 6.54386 17.1633C7.0772 17.1633 7.51386 17.0233 7.85386 16.7433C8.19386 16.4566 8.4172 16.0599 8.52386 15.5533H6.12386V14.4833H9.90386V15.7033C9.81053 16.1899 9.61053 16.6399 9.30386 17.0533C8.9972 17.4666 8.60053 17.7999 8.11386 18.0533C7.63386 18.2999 7.09386 18.4233 6.49386 18.4233C5.82053 18.4233 5.21053 18.2733 4.66386 17.9733C4.12386 17.6666 3.6972 17.2433 3.38386 16.7033C3.0772 16.1633 2.92386 15.5499 2.92386 14.8633C2.92386 14.1766 3.0772 13.5633 3.38386 13.0233C3.6972 12.4766 4.12386 12.0533 4.66386 11.7533C5.21053 11.4466 5.8172 11.2933 6.48386 11.2933C7.27053 11.2933 7.95386 11.4866 8.53386 11.8733C9.11386 12.2533 9.51386 12.7899 9.73386 13.4833H8.12386ZM12.3396 11.3833V18.3633H10.9396V11.3833H12.3396ZM18.0328 11.3833V12.5133H15.1228V14.3033H17.3528V15.4133H15.1228V18.3633H13.7228V11.3833H18.0328Z" fill="#434343"/>
</svg>
