<svg width="15" height="16" viewBox="0 0 15 16" fill="none" xmlns="http://www.w3.org/2000/svg">
<path d="M14.6367 0.109375V4.41016H14.2148C13.9648 3.41797 13.6875 2.70703 13.3828 2.27734C13.0781 1.83984 12.6602 1.49219 12.1289 1.23438C11.832 1.09375 11.3125 1.02344 10.5703 1.02344H9.38672V13.2812C9.38672 14.0938 9.42969 14.6016 9.51562 14.8047C9.60938 15.0078 9.78516 15.1875 10.043 15.3438C10.3086 15.4922 10.668 15.5664 11.1211 15.5664H11.6484V16H3.32812V15.5664H3.85547C4.31641 15.5664 4.6875 15.4844 4.96875 15.3203C5.17188 15.2109 5.33203 15.0234 5.44922 14.7578C5.53516 14.5703 5.57812 14.0781 5.57812 13.2812V1.02344H4.42969C3.35938 1.02344 2.58203 1.25 2.09766 1.70312C1.41797 2.33594 0.988281 3.23828 0.808594 4.41016H0.363281V0.109375H14.6367Z" fill="white"/>
</svg>
